<svg xmlns="http://www.w3.org/2000/svg" xmlns:xlink="http://www.w3.org/1999/xlink" version="1.1" width="1000" height="1000" viewBox="0 0 1000 1000" xml:space="preserve">
<desc>Created with Fabric.js 3.5.0</desc>
<defs>
</defs>
<rect x="0" y="0" width="100%" height="100%" fill="#ffffff"/>
<g transform="matrix(1 0 0 1 493.6887 557.2741)" style="" id="612803">
		
<path xml:space="preserve" font-family="Quicksand" font-size="298" font-weight="bold" style="stroke: rgb(49,158,215); stroke-width: 8; stroke-dasharray: none; stroke-linecap: butt; stroke-dashoffset: 0; stroke-linejoin: miter; stroke-miterlimit: 4; is-custom-font: none; font-file-url: none; fill: rgb(49,158,215); fill-rule: nonzero; opacity: 1; white-space: pre;" d="M-420.48-114.99L-420.48-114.99L-320.65-114.99Q-312.90-114.99-307.68-110.07Q-302.47-105.15-302.47-97.40L-302.47-97.40Q-302.47-89.95-307.68-85.34Q-312.90-80.72-320.65-80.72L-320.65-80.72L-404.09-80.72L-401.41-85.78L-401.41-27.67L-403.79-30.06L-334.06-30.06Q-326.31-30.06-321.09-25.14Q-315.88-20.22-315.88-12.47L-315.88-12.47Q-315.88-5.02-321.09-0.41Q-326.31 4.21-334.06 4.21L-334.06 4.21L-402.90 4.21L-401.41 1.83L-401.41 62.03L-403.79 59.34L-320.65 59.34Q-312.90 59.34-307.68 64.56Q-302.47 69.77-302.47 76.63L-302.47 76.63Q-302.47 84.08-307.68 88.85Q-312.90 93.61-320.65 93.61L-320.65 93.61L-420.48 93.61Q-428.23 93.61-433.44 88.40Q-438.66 83.18-438.66 75.44L-438.66 75.44L-438.66-96.81Q-438.66-104.56-433.44-109.77Q-428.23-114.99-420.48-114.99ZM-185.95-68.80L-185.95-68.80Q-163.90-68.80-152.43-59.56Q-140.95-50.32-136.63-34.97Q-132.31-19.63-132.31-0.85L-132.31-0.85L-132.31 75.44Q-132.31 83.18-137.38 88.40Q-142.44 93.61-150.19 93.61L-150.19 93.61Q-157.94 93.61-163.01 88.40Q-168.07 83.18-168.07 75.44L-168.07 75.44L-168.07-0.85Q-168.07-10.69-170.60-18.58Q-173.14-26.48-179.69-31.25Q-186.25-36.02-198.47-36.02L-198.47-36.02Q-210.39-36.02-218.58-31.25Q-226.78-26.48-231.10-18.58Q-235.42-10.69-235.42-0.85L-235.42-0.85L-235.42 75.44Q-235.42 83.18-240.49 88.40Q-245.55 93.61-253.30 93.61L-253.30 93.61Q-261.05 93.61-266.11 88.40Q-271.18 83.18-271.18 75.44L-271.18 75.44L-271.18-47.64Q-271.18-55.39-266.11-60.60Q-261.05-65.82-253.30-65.82L-253.30-65.82Q-245.55-65.82-240.49-60.60Q-235.42-55.39-235.42-47.64L-235.42-47.64L-235.42-34.82L-239.89-35.72Q-237.21-40.78-232.14-46.60Q-227.08-52.41-220.22-57.47Q-213.37-62.54-204.73-65.67Q-196.08-68.80-185.95-68.80ZM59.60 14.05L59.60 14.05Q59.60 38.48 48.72 57.11Q37.85 75.73 19.52 86.16Q1.19 96.59-21.46 96.59L-21.46 96.59Q-44.10 96.59-62.43 86.16Q-80.76 75.73-91.63 57.11Q-102.51 38.48-102.51 14.05L-102.51 14.05Q-102.51-10.39-91.63-29.01Q-80.76-47.64-62.43-58.22Q-44.10-68.80-21.46-68.80L-21.46-68.80Q1.19-68.80 19.52-58.22Q37.85-47.64 48.72-29.01Q59.60-10.39 59.60 14.05ZM23.84 14.05L23.84 14.05Q23.84-1.15 17.73-12.33Q11.62-23.50 1.34-29.76Q-8.94-36.02-21.46-36.02L-21.46-36.02Q-33.97-36.02-44.25-29.76Q-54.53-23.50-60.64-12.33Q-66.75-1.15-66.75 14.05L-66.75 14.05Q-66.75 28.95-60.64 40.12Q-54.53 51.30-44.25 57.56Q-33.97 63.81-21.46 63.81L-21.46 63.81Q-8.94 63.81 1.34 57.56Q11.62 51.30 17.73 40.12Q23.84 28.95 23.84 14.05ZM95.06-65.82L95.06-65.82Q100.72-65.82 105.49-62.99Q110.26-60.15 112.64-54.49L112.64-54.49L156.45 45.64L149.89 48.62L194.59-54.19Q199.66-66.11 210.39-65.52L210.39-65.52Q217.84-65.52 222.46-60.90Q227.08-56.28 227.08-49.43L227.08-49.43Q227.08-47.34 226.33-44.96Q225.59-42.57 224.69-40.49L224.69-40.49L168.97 82.29Q164.20 93.02 153.77 93.61L153.77 93.61Q148.11 94.51 142.89 91.53Q137.68 88.55 134.99 82.29L134.99 82.29L79.57-40.49Q78.97-41.98 78.23-44.36Q77.48-46.74 77.48-50.02L77.48-50.02Q77.48-55.39 82.25-60.60Q87.02-65.82 95.06-65.82ZM320.95 20.01L269.09 20.01Q261.35 20.01 256.13 14.94Q250.92 9.88 250.92 2.13L250.92 2.13Q250.92-5.62 256.13-10.54Q261.35-15.45 269.09-15.45L269.09-15.45L320.95-15.45Q328.69-15.45 333.91-10.24Q339.12-5.02 339.12 2.72L339.12 2.72Q339.12 10.17 333.91 15.09Q328.69 20.01 320.95 20.01L320.95 20.01ZM420.48 93.61L420.48 93.61Q412.13 93.61 406.77 88.40Q401.41 83.18 401.41 75.44L401.41 75.44L401.41-74.76L405.58-68.20L382.93-54.49Q378.46-51.81 373.39-51.81L373.39-51.81Q365.65-51.81 360.58-57.62Q355.51-63.43 355.51-69.99L355.51-69.99Q355.51-80.12 364.75-85.48L364.75-85.48L409.75-112.30Q414.82-114.99 422.56-114.99L422.56-114.99Q430.31-114.99 435.23-109.77Q440.15-104.56 440.15-96.81L440.15-96.81L440.15 75.44Q440.15 83.18 434.63 88.40Q429.12 93.61 420.48 93.61Z"/></g>
</svg>