<svg xmlns="http://www.w3.org/2000/svg" xmlns:xlink="http://www.w3.org/1999/xlink" version="1.1" width="1000" height="1000" viewBox="0 0 1000 1000" xml:space="preserve">
<desc>Created with Fabric.js 3.5.0</desc>
<defs>
</defs>
<rect x="0" y="0" width="100%" height="100%" fill="#ffffff"/>
<g transform="matrix(1 0 0 1 500 500)" id="74217">
<g style="" vector-effect="non-scaling-stroke">
		<g transform="matrix(0.5618 0 0 0.5618 0.002 0.0018)">
<path style="stroke: none; stroke-width: 1; stroke-dasharray: none; stroke-linecap: butt; stroke-dashoffset: 0; stroke-linejoin: miter; stroke-miterlimit: 4; is-custom-font: none; font-file-url: none; fill: rgb(43,148,209); fill-rule: nonzero; opacity: 1;" transform=" translate(-890, -784)" d="M 0 0 H 1780 V 1568 H 0 V 0 Z" stroke-linecap="round"/>
</g>
		<g transform="matrix(0.5618 0 0 0.5618 0.2474 0.1487)">
<path style="stroke: none; stroke-width: 1; stroke-dasharray: none; stroke-linecap: butt; stroke-dashoffset: 0; stroke-linejoin: miter; stroke-miterlimit: 4; is-custom-font: none; font-file-url: none; fill: rgb(43,148,209); fill-rule: evenodd; opacity: 1;" transform=" translate(-890.44, -784.2645)" d="M 824.311 777.072 C 826.617 779.831 827.77 783.997 827.77 789.569 V 808.133 C 827.77 809.901 827.22 811.294 826.121 812.312 C 825.021 813.33 823.533 813.839 821.657 813.839 C 819.78 813.839 818.305 813.33 817.233 812.312 C 816.16 811.294 815.624 809.901 815.624 808.133 V 790.131 C 815.624 787.453 815.128 785.497 814.136 784.265 C 813.144 783.032 811.602 782.416 809.511 782.416 C 806.991 782.416 804.966 783.22 803.438 784.827 C 801.91 786.435 801.146 788.578 801.146 791.257 V 808.133 C 801.146 809.901 800.609 811.294 799.537 812.312 C 798.465 813.33 796.99 813.839 795.113 813.839 C 793.236 813.839 791.748 813.33 790.649 812.312 C 789.55 811.294 789 809.901 789 808.133 V 778.639 C 789 776.978 789.576 775.639 790.729 774.621 C 791.882 773.603 793.37 773.094 795.193 773.094 C 796.856 773.094 798.21 773.589 799.255 774.581 C 800.301 775.572 800.824 776.844 800.824 778.398 V 779.523 C 802.218 777.38 804.028 775.746 806.253 774.621 C 808.479 773.496 810.986 772.933 813.774 772.933 C 818.493 772.933 822.005 774.313 824.311 777.072 Z M 840.3 811.469 C 837.136 809.781 834.696 807.397 832.98 804.316 C 831.264 801.235 830.406 797.605 830.406 793.426 C 830.406 789.247 831.264 785.618 832.98 782.537 C 834.696 779.456 837.136 777.085 840.3 775.424 C 843.464 773.764 847.137 772.933 851.32 772.933 C 855.502 772.933 859.175 773.764 862.339 775.424 C 865.503 777.085 867.943 779.456 869.659 782.537 C 871.375 785.618 872.233 789.247 872.233 793.426 C 872.233 797.605 871.375 801.235 869.659 804.316 C 867.943 807.397 865.503 809.781 862.339 811.469 C 859.175 813.156 855.502 814 851.32 814 C 847.137 814 843.464 813.156 840.3 811.469 Z M 860.167 793.426 C 860.167 789.622 859.403 786.783 857.875 784.908 C 856.347 783.032 854.162 782.095 851.32 782.095 C 845.421 782.095 842.472 785.872 842.472 793.426 C 842.472 800.981 845.421 804.758 851.32 804.758 C 857.218 804.758 860.167 800.981 860.167 793.426 Z M 933.187 776.831 C 935.493 779.429 936.646 783.675 936.646 789.569 V 808.133 C 936.646 810.009 936.083 811.428 934.957 812.393 C 933.831 813.357 932.383 813.839 930.613 813.839 C 928.898 813.839 927.45 813.357 926.27 812.393 C 925.09 811.428 924.5 810.009 924.5 808.133 V 789.408 C 924.5 786.836 924.058 785.028 923.173 783.983 C 922.288 782.939 920.934 782.416 919.111 782.416 C 916.859 782.416 915.063 783.193 913.722 784.747 C 912.382 786.301 911.711 788.47 911.711 791.257 V 808.133 C 911.711 810.009 911.148 811.428 910.022 812.393 C 908.896 813.357 907.448 813.839 905.679 813.839 C 903.963 813.839 902.515 813.357 901.335 812.393 C 900.155 811.428 899.566 810.009 899.566 808.133 V 789.408 C 899.566 786.836 899.123 785.028 898.238 783.983 C 897.354 782.939 896 782.416 894.176 782.416 C 891.924 782.416 890.128 783.193 888.787 784.747 C 887.447 786.301 886.776 788.47 886.776 791.257 V 808.133 C 886.776 810.009 886.2 811.428 885.047 812.393 C 883.894 813.357 882.46 813.839 880.744 813.839 C 879.028 813.839 877.58 813.357 876.4 812.393 C 875.221 811.428 874.631 810.009 874.631 808.133 V 778.639 C 874.631 776.871 875.234 775.505 876.441 774.54 C 877.647 773.576 879.108 773.094 880.824 773.094 C 882.433 773.094 883.774 773.563 884.846 774.5 C 885.918 775.438 886.455 776.737 886.455 778.398 V 779.202 C 887.742 777.166 889.417 775.612 891.482 774.54 C 893.546 773.469 895.892 772.933 898.52 772.933 C 901.362 772.933 903.762 773.509 905.719 774.661 C 907.676 775.813 909.191 777.675 910.263 780.246 C 911.497 777.996 913.253 776.215 915.532 774.902 C 917.811 773.589 920.398 772.933 923.294 772.933 C 927.584 772.933 930.882 774.232 933.187 776.831 Z M 941.583 812.393 C 940.43 811.428 939.854 810.009 939.854 808.133 V 778.8 C 939.854 776.925 940.444 775.505 941.623 774.54 C 942.803 773.576 944.251 773.094 945.967 773.094 C 947.683 773.094 949.117 773.576 950.27 774.54 C 951.423 775.505 951.999 776.925 951.999 778.8 V 808.133 C 951.999 810.009 951.423 811.428 950.27 812.393 C 949.117 813.357 947.683 813.839 945.967 813.839 C 944.197 813.839 942.736 813.357 941.583 812.393 Z M 940.899 766.098 C 939.666 764.886 939.049 763.246 939.049 761.178 C 939.049 759.109 939.666 757.484 940.899 756.302 C 942.133 755.12 943.822 754.529 945.967 754.529 C 948.058 754.529 949.734 755.135 950.994 756.347 C 952.254 757.558 952.884 759.168 952.884 761.178 C 952.884 763.246 952.268 764.886 951.034 766.098 C 949.801 767.309 948.112 767.915 945.967 767.915 C 943.822 767.915 942.133 767.309 940.899 766.098 Z M 990.633 802.91 C 991.304 803.767 991.639 804.865 991.639 806.205 C 991.639 807.115 991.371 807.959 990.835 808.736 C 990.298 809.513 989.548 810.169 988.582 810.705 C 986.759 811.669 984.641 812.46 982.228 813.076 C 979.815 813.692 977.59 814 975.552 814 C 971.262 814 967.522 813.17 964.331 811.509 C 961.141 809.848 958.687 807.477 956.971 804.396 C 955.256 801.316 954.398 797.686 954.398 793.507 C 954.398 789.488 955.229 785.926 956.891 782.818 C 958.553 779.711 960.859 777.286 963.808 775.545 C 966.758 773.804 970.109 772.933 973.863 772.933 C 977.456 772.933 980.606 773.723 983.314 775.304 C 986.022 776.884 988.127 779.135 989.628 782.055 C 991.13 784.975 991.88 788.39 991.88 792.301 C 991.88 793.48 991.599 794.377 991.036 794.994 C 990.473 795.61 989.682 795.918 988.663 795.918 H 966.141 C 966.516 799.079 967.482 801.369 969.037 802.789 C 970.592 804.209 972.817 804.919 975.713 804.919 C 977.268 804.919 978.662 804.731 979.895 804.356 C 981.129 803.981 982.496 803.472 983.998 802.829 C 984.748 802.508 985.472 802.226 986.169 801.985 C 986.866 801.744 987.483 801.624 988.019 801.624 C 989.092 801.624 989.963 802.052 990.633 802.91 Z M 968.635 783.501 C 967.24 784.975 966.409 787.104 966.141 789.89 H 981.665 C 981.504 787.051 980.794 784.908 979.533 783.461 C 978.273 782.014 976.49 781.291 974.185 781.291 C 971.879 781.291 970.029 782.028 968.635 783.501 Z" stroke-linecap="round"/>
</g>
		<g transform="matrix(0.5618 0 0 0.5618 0.2474 -0.7103)">
<path style="stroke: none; stroke-width: 1; stroke-dasharray: none; stroke-linecap: butt; stroke-dashoffset: 0; stroke-linejoin: miter; stroke-miterlimit: 4; is-custom-font: none; font-file-url: none; fill: rgb(43,148,209); fill-rule: evenodd; opacity: 1;" transform=" translate(-890.44, -782.7355)" d="M 824.311 775.543 C 826.617 778.302 827.77 782.467 827.77 788.04 V 806.604 C 827.77 808.372 827.22 809.765 826.121 810.783 C 825.021 811.801 823.533 812.31 821.657 812.31 C 819.78 812.31 818.305 811.801 817.233 810.783 C 816.16 809.765 815.624 808.372 815.624 806.604 V 788.602 C 815.624 785.923 815.128 783.968 814.136 782.735 C 813.144 781.503 811.602 780.887 809.511 780.887 C 806.991 780.887 804.966 781.691 803.438 783.298 C 801.91 784.905 801.146 787.048 801.146 789.727 V 806.604 C 801.146 808.372 800.609 809.765 799.537 810.783 C 798.465 811.801 796.99 812.31 795.113 812.31 C 793.236 812.31 791.748 811.801 790.649 810.783 C 789.55 809.765 789 808.372 789 806.604 V 777.11 C 789 775.449 789.576 774.109 790.729 773.091 C 791.882 772.073 793.37 771.565 795.193 771.565 C 796.856 771.565 798.21 772.06 799.255 773.051 C 800.301 774.042 800.824 775.315 800.824 776.869 V 777.994 C 802.218 775.851 804.028 774.217 806.253 773.091 C 808.479 771.966 810.986 771.404 813.774 771.404 C 818.493 771.404 822.005 772.783 824.311 775.543 Z M 840.3 809.939 C 837.136 808.252 834.696 805.867 832.98 802.787 C 831.264 799.706 830.406 796.076 830.406 791.897 C 830.406 787.718 831.264 784.088 832.98 781.008 C 834.696 777.927 837.136 775.556 840.3 773.895 C 843.464 772.234 847.137 771.404 851.32 771.404 C 855.502 771.404 859.175 772.234 862.339 773.895 C 865.503 775.556 867.943 777.927 869.659 781.008 C 871.375 784.088 872.233 787.718 872.233 791.897 C 872.233 796.076 871.375 799.706 869.659 802.787 C 867.943 805.867 865.503 808.252 862.339 809.939 C 859.175 811.627 855.502 812.471 851.32 812.471 C 847.137 812.471 843.464 811.627 840.3 809.939 Z M 860.167 791.897 C 860.167 788.093 859.403 785.254 857.875 783.378 C 856.347 781.503 854.162 780.566 851.32 780.566 C 845.421 780.566 842.472 784.343 842.472 791.897 C 842.472 799.452 845.421 803.229 851.32 803.229 C 857.218 803.229 860.167 799.452 860.167 791.897 Z M 933.187 775.302 C 935.493 777.9 936.646 782.146 936.646 788.04 V 806.604 C 936.646 808.479 936.083 809.899 934.957 810.863 C 933.831 811.828 932.383 812.31 930.613 812.31 C 928.898 812.31 927.45 811.828 926.27 810.863 C 925.09 809.899 924.5 808.479 924.5 806.604 V 787.879 C 924.5 785.307 924.058 783.499 923.173 782.454 C 922.288 781.409 920.934 780.887 919.111 780.887 C 916.859 780.887 915.063 781.664 913.722 783.218 C 912.382 784.771 911.711 786.941 911.711 789.727 V 806.604 C 911.711 808.479 911.148 809.899 910.022 810.863 C 908.896 811.828 907.448 812.31 905.679 812.31 C 903.963 812.31 902.515 811.828 901.335 810.863 C 900.155 809.899 899.566 808.479 899.566 806.604 V 787.879 C 899.566 785.307 899.123 783.499 898.238 782.454 C 897.354 781.409 896 780.887 894.176 780.887 C 891.924 780.887 890.128 781.664 888.787 783.218 C 887.447 784.771 886.776 786.941 886.776 789.727 V 806.604 C 886.776 808.479 886.2 809.899 885.047 810.863 C 883.894 811.828 882.46 812.31 880.744 812.31 C 879.028 812.31 877.58 811.828 876.4 810.863 C 875.221 809.899 874.631 808.479 874.631 806.604 V 777.11 C 874.631 775.342 875.234 773.975 876.441 773.011 C 877.647 772.047 879.108 771.565 880.824 771.565 C 882.433 771.565 883.774 772.033 884.846 772.971 C 885.918 773.909 886.455 775.208 886.455 776.869 V 777.672 C 887.742 775.636 889.417 774.083 891.482 773.011 C 893.546 771.94 895.892 771.404 898.52 771.404 C 901.362 771.404 903.762 771.98 905.719 773.132 C 907.676 774.284 909.191 776.145 910.263 778.717 C 911.497 776.467 913.253 774.685 915.532 773.373 C 917.811 772.06 920.398 771.404 923.294 771.404 C 927.584 771.404 930.882 772.703 933.187 775.302 Z M 941.583 810.863 C 940.43 809.899 939.854 808.479 939.854 806.604 V 777.27 C 939.854 775.395 940.444 773.975 941.623 773.011 C 942.803 772.047 944.251 771.565 945.967 771.565 C 947.683 771.565 949.117 772.047 950.27 773.011 C 951.423 773.975 951.999 775.395 951.999 777.27 V 806.604 C 951.999 808.479 951.423 809.899 950.27 810.863 C 949.117 811.828 947.683 812.31 945.967 812.31 C 944.197 812.31 942.736 811.828 941.583 810.863 Z M 940.899 764.568 C 939.666 763.357 939.049 761.717 939.049 759.649 C 939.049 757.58 939.666 755.955 940.899 754.773 C 942.133 753.591 943.822 753 945.967 753 C 948.058 753 949.734 753.606 950.994 754.817 C 952.254 756.029 952.884 757.639 952.884 759.649 C 952.884 761.717 952.268 763.357 951.034 764.568 C 949.801 765.78 948.112 766.386 945.967 766.386 C 943.822 766.386 942.133 765.78 940.899 764.568 Z M 990.633 801.38 C 991.304 802.238 991.639 803.336 991.639 804.675 C 991.639 805.586 991.371 806.43 990.835 807.207 C 990.298 807.984 989.548 808.64 988.582 809.176 C 986.759 810.14 984.641 810.93 982.228 811.547 C 979.815 812.163 977.59 812.471 975.552 812.471 C 971.262 812.471 967.522 811.64 964.331 809.979 C 961.141 808.319 958.687 805.948 956.971 802.867 C 955.256 799.786 954.398 796.156 954.398 791.977 C 954.398 787.959 955.229 784.396 956.891 781.289 C 958.553 778.181 960.859 775.757 963.808 774.016 C 966.758 772.274 970.109 771.404 973.863 771.404 C 977.456 771.404 980.606 772.194 983.314 773.775 C 986.022 775.355 988.127 777.605 989.628 780.525 C 991.13 783.445 991.88 786.861 991.88 790.772 C 991.88 791.951 991.599 792.848 991.036 793.464 C 990.473 794.08 989.682 794.388 988.663 794.388 H 966.141 C 966.516 797.55 967.482 799.84 969.037 801.26 C 970.592 802.68 972.817 803.389 975.713 803.389 C 977.268 803.389 978.662 803.202 979.895 802.827 C 981.129 802.452 982.496 801.943 983.998 801.3 C 984.748 800.978 985.472 800.697 986.169 800.456 C 986.866 800.215 987.483 800.094 988.019 800.094 C 989.092 800.094 989.963 800.523 990.633 801.38 Z M 968.635 781.972 C 967.24 783.445 966.409 785.575 966.141 788.361 H 981.665 C 981.504 785.521 980.794 783.378 979.533 781.932 C 978.273 780.485 976.49 779.762 974.185 779.762 C 971.879 779.762 970.029 780.499 968.635 781.972 Z" stroke-linecap="round"/>
</g>
</g>
</g>
<g transform="matrix(1 0 0 1 500.5 486.08)" style="" id="118316">
		
<path xml:space="preserve" font-family="Quicksand" font-size="72" font-weight="bold" style="stroke: rgb(43,148,209); stroke-width: 1; stroke-dasharray: none; stroke-linecap: butt; stroke-dashoffset: 0; stroke-linejoin: miter; stroke-miterlimit: 4; is-custom-font: none; font-file-url: none; fill: rgb(4,64,84); fill-rule: nonzero; opacity: 1; white-space: pre;" d="M-101.59-27.78L-101.59-27.78L-77.47-27.78Q-75.60-27.78-74.34-26.59Q-73.08-25.41-73.08-23.53L-73.08-23.53Q-73.08-21.73-74.34-20.62Q-75.60-19.50-77.47-19.50L-77.47-19.50L-97.63-19.50L-96.98-20.73L-96.98-6.69L-97.56-7.26L-80.71-7.26Q-78.84-7.26-77.58-6.07Q-76.32-4.89-76.32-3.01L-76.32-3.01Q-76.32-1.21-77.58-0.10Q-78.84 1.02-80.71 1.02L-80.71 1.02L-97.34 1.02L-96.98 0.44L-96.98 14.99L-97.56 14.34L-77.47 14.34Q-75.60 14.34-74.34 15.60Q-73.08 16.86-73.08 18.51L-73.08 18.51Q-73.08 20.31-74.34 21.47Q-75.60 22.62-77.47 22.62L-77.47 22.62L-101.59 22.62Q-103.46 22.62-104.72 21.36Q-105.98 20.10-105.98 18.23L-105.98 18.23L-105.98-23.39Q-105.98-25.26-104.72-26.52Q-103.46-27.78-101.59-27.78ZM-44.93-16.62L-44.93-16.62Q-39.60-16.62-36.83-14.39Q-34.06-12.16-33.01-8.45Q-31.97-4.74-31.97-0.21L-31.97-0.21L-31.97 18.23Q-31.97 20.10-33.19 21.36Q-34.42 22.62-36.29 22.62L-36.29 22.62Q-38.16 22.62-39.38 21.36Q-40.61 20.10-40.61 18.23L-40.61 18.23L-40.61-0.21Q-40.61-2.58-41.22-4.49Q-41.83-6.40-43.42-7.55Q-45.00-8.70-47.95-8.70L-47.95-8.70Q-50.83-8.70-52.81-7.55Q-54.79-6.40-55.84-4.49Q-56.88-2.58-56.88-0.21L-56.88-0.21L-56.88 18.23Q-56.88 20.10-58.10 21.36Q-59.33 22.62-61.20 22.62L-61.20 22.62Q-63.07 22.62-64.30 21.36Q-65.52 20.10-65.52 18.23L-65.52 18.23L-65.52-11.51Q-65.52-13.38-64.30-14.64Q-63.07-15.90-61.20-15.90L-61.20-15.90Q-59.33-15.90-58.10-14.64Q-56.88-13.38-56.88-11.51L-56.88-11.51L-56.88-8.41L-57.96-8.63Q-57.31-9.85-56.09-11.26Q-54.86-12.66-53.21-13.89Q-51.55-15.11-49.46-15.87Q-47.38-16.62-44.93-16.62ZM14.40 3.39L14.40 3.39Q14.40 9.30 11.77 13.80Q9.14 18.30 4.72 20.82Q0.29 23.34-5.18 23.34L-5.18 23.34Q-10.66 23.34-15.08 20.82Q-19.51 18.30-22.14 13.80Q-24.77 9.30-24.77 3.39L-24.77 3.39Q-24.77-2.51-22.14-7.01Q-19.51-11.51-15.08-14.07Q-10.66-16.62-5.18-16.62L-5.18-16.62Q0.29-16.62 4.72-14.07Q9.14-11.51 11.77-7.01Q14.40-2.51 14.40 3.39ZM5.76 3.39L5.76 3.39Q5.76-0.28 4.28-2.98Q2.81-5.68 0.32-7.19Q-2.16-8.70-5.18-8.70L-5.18-8.70Q-8.21-8.70-10.69-7.19Q-13.18-5.68-14.65-2.98Q-16.13-0.28-16.13 3.39L-16.13 3.39Q-16.13 6.99-14.65 9.69Q-13.18 12.39-10.69 13.91Q-8.21 15.42-5.18 15.42L-5.18 15.42Q-2.16 15.42 0.32 13.91Q2.81 12.39 4.28 9.69Q5.76 6.99 5.76 3.39ZM22.97-15.90L22.97-15.90Q24.34-15.90 25.49-15.22Q26.64-14.53 27.22-13.17L27.22-13.17L37.80 11.03L36.22 11.75L47.02-13.09Q48.24-15.97 50.83-15.83L50.83-15.83Q52.63-15.83 53.75-14.71Q54.86-13.60 54.86-11.94L54.86-11.94Q54.86-11.44 54.68-10.86Q54.50-10.29 54.29-9.78L54.29-9.78L40.82 19.88Q39.67 22.47 37.15 22.62L37.15 22.62Q35.78 22.83 34.52 22.11Q33.26 21.39 32.62 19.88L32.62 19.88L19.22-9.78Q19.08-10.14 18.90-10.72Q18.72-11.29 18.72-12.09L18.72-12.09Q18.72-13.38 19.87-14.64Q21.02-15.90 22.97-15.90ZM77.54 4.83L65.02 4.83Q63.14 4.83 61.88 3.61Q60.62 2.39 60.62 0.51L60.62 0.51Q60.62-1.36 61.88-2.55Q63.14-3.73 65.02-3.73L65.02-3.73L77.54-3.73Q79.42-3.73 80.68-2.47Q81.94-1.21 81.94 0.66L81.94 0.66Q81.94 2.46 80.68 3.65Q79.42 4.83 77.54 4.83L77.54 4.83ZM101.59 22.62L101.59 22.62Q99.58 22.62 98.28 21.36Q96.98 20.10 96.98 18.23L96.98 18.23L96.98-18.06L97.99-16.48L92.52-13.17Q91.44-12.52 90.22-12.52L90.22-12.52Q88.34-12.52 87.12-13.92Q85.90-15.33 85.90-16.91L85.90-16.91Q85.90-19.36 88.13-20.65L88.13-20.65L99.00-27.13Q100.22-27.78 102.10-27.78L102.10-27.78Q103.97-27.78 105.16-26.52Q106.34-25.26 106.34-23.39L106.34-23.39L106.34 18.23Q106.34 20.10 105.01 21.36Q103.68 22.62 101.59 22.62Z"/></g>
<g transform="matrix(1 0 0 1 547.9296 532.0238)" style="" id="118984">
		
</g>
<g transform="matrix(1 0 0 1 546.9773 523.46)" style="" id="444390">
		
<path xml:space="preserve" font-family="Quicksand" font-size="24" font-weight="bold" style="stroke: none; stroke-width: 0; stroke-dasharray: none; stroke-linecap: butt; stroke-dashoffset: 0; stroke-linejoin: miter; stroke-miterlimit: 4; is-custom-font: none; font-file-url: none; fill: rgb(255,255,255); fill-opacity: 0.72; fill-rule: nonzero; opacity: 1; white-space: pre;" d="M-101.29 7.54L-101.29 7.54Q-101.97 7.54-102.40 7.12Q-102.83 6.70-102.83 6.08L-102.83 6.08L-102.83-7.84L-99.71-7.84L-99.71 6.08Q-99.71 6.70-100.15 7.12Q-100.60 7.54-101.29 7.54ZM-95.94-6.50L-106.60-6.50Q-107.22-6.50-107.64-6.88Q-108.06-7.27-108.06-7.89L-108.06-7.89Q-108.06-8.52-107.64-8.89Q-107.22-9.26-106.60-9.26L-106.60-9.26L-95.94-9.26Q-95.32-9.26-94.90-8.88Q-94.48-8.49-94.48-7.87L-94.48-7.87Q-94.48-7.24-94.90-6.87Q-95.32-6.50-95.94-6.50L-95.94-6.50ZM-85.45-5.54L-85.45-5.54Q-83.73-5.54-82.83-4.80Q-81.93-4.05-81.59-2.82Q-81.25-1.58-81.25-0.07L-81.25-0.07L-81.25 6.08Q-81.25 6.70-81.66 7.12Q-82.07 7.54-82.69 7.54L-82.69 7.54Q-83.32 7.54-83.73 7.12Q-84.13 6.70-84.13 6.08L-84.13 6.08L-84.13-0.07Q-84.13-0.86-84.33-1.50Q-84.52-2.13-85.02-2.52Q-85.53-2.90-86.46-2.90L-86.46-2.90Q-87.37-2.90-88.02-2.52Q-88.67-2.13-88.99-1.50Q-89.32-0.86-89.32-0.07L-89.32-0.07L-89.32 6.08Q-89.32 6.70-89.73 7.12Q-90.13 7.54-90.76 7.54L-90.76 7.54Q-91.38 7.54-91.79 7.12Q-92.20 6.70-92.20 6.08L-92.20 6.08L-92.20-8.76Q-92.20-9.38-91.79-9.80Q-91.38-10.22-90.76-10.22L-90.76-10.22Q-90.13-10.22-89.73-9.80Q-89.32-9.38-89.32-8.76L-89.32-8.76L-89.32-2.80L-89.68-2.88Q-89.46-3.28-89.08-3.75Q-88.69-4.22-88.14-4.63Q-87.59-5.04-86.92-5.29Q-86.25-5.54-85.45-5.54ZM-72.21 7.78L-72.21 7.78Q-74.25 7.78-75.75 6.93Q-77.25 6.08-78.05 4.61Q-78.85 3.15-78.85 1.30L-78.85 1.30Q-78.85-0.86-77.98-2.38Q-77.10-3.91-75.69-4.72Q-74.27-5.54-72.69-5.54L-72.69-5.54Q-71.46-5.54-70.37-5.04Q-69.28-4.53-68.44-3.66Q-67.60-2.78-67.11-1.63Q-66.61-0.48-66.61 0.82L-66.61 0.82Q-66.64 1.40-67.07 1.76Q-67.50 2.12-68.08 2.12L-68.08 2.12L-77.25 2.12L-77.97-0.28L-69.16-0.28L-69.69 0.20L-69.69-0.45Q-69.73-1.15-70.18-1.70Q-70.62-2.25-71.28-2.58Q-71.94-2.90-72.69-2.90L-72.69-2.90Q-73.41-2.90-74.03-2.71Q-74.65-2.52-75.11-2.06Q-75.57-1.60-75.83-0.84Q-76.09-0.07-76.09 1.11L-76.09 1.11Q-76.09 2.40-75.55 3.30Q-75.01 4.20-74.16 4.67Q-73.31 5.14-72.35 5.14L-72.35 5.14Q-71.46 5.14-70.93 5.00Q-70.41 4.85-70.08 4.65Q-69.76 4.44-69.49 4.30L-69.49 4.30Q-69.06 4.08-68.68 4.08L-68.68 4.08Q-68.15 4.08-67.80 4.44Q-67.45 4.80-67.45 5.28L-67.45 5.28Q-67.45 5.93-68.13 6.46L-68.13 6.46Q-68.75 6.99-69.88 7.38Q-71.01 7.78-72.21 7.78ZM-55.74 7.54L-55.74 7.54Q-56.41 7.54-56.83 7.12Q-57.25 6.70-57.25 6.08L-57.25 6.08L-57.25-7.80Q-57.25-8.42-56.83-8.84Q-56.41-9.26-55.79-9.26L-55.79-9.26L-47.99-9.26Q-47.37-9.26-46.95-8.86Q-46.53-8.47-46.53-7.84L-46.53-7.84Q-46.53-7.32-46.95-6.91Q-47.37-6.50-47.99-6.50L-47.99-6.50L-54.47-6.50L-54.25-6.79L-54.25-1.96L-54.42-2.28L-49.07-2.28Q-48.45-2.28-48.03-1.88Q-47.61-1.48-47.61-0.86L-47.61-0.86Q-47.61-0.33-48.03 0.08Q-48.45 0.48-49.07 0.48L-49.07 0.48L-54.47 0.48L-54.25 0.27L-54.25 6.08Q-54.25 6.70-54.70 7.12Q-55.14 7.54-55.74 7.54ZM-34.84-5.30L-34.84-5.30Q-34.21-5.30-33.81-4.88Q-33.40-4.46-33.40-3.84L-33.40-3.84L-33.40 2.26Q-33.40 4.80-34.81 6.29Q-36.23 7.78-38.89 7.78L-38.89 7.78Q-41.56 7.78-42.96 6.29Q-44.37 4.80-44.37 2.26L-44.37 2.26L-44.37-3.84Q-44.37-4.46-43.96-4.88Q-43.55-5.30-42.93-5.30L-42.93-5.30Q-42.30-5.30-41.89-4.88Q-41.49-4.46-41.49-3.84L-41.49-3.84L-41.49 2.26Q-41.49 3.72-40.84 4.43Q-40.19 5.14-38.89 5.14L-38.89 5.14Q-37.57 5.14-36.93 4.43Q-36.28 3.72-36.28 2.26L-36.28 2.26L-36.28-3.84Q-36.28-4.46-35.87-4.88Q-35.46-5.30-34.84-5.30ZM-30.13-5.06L-30.13-5.06L-24.45-5.06Q-23.87-5.06-23.49-4.68Q-23.10-4.29-23.10-3.72L-23.10-3.72Q-23.10-3.16-23.49-2.79Q-23.87-2.42-24.45-2.42L-24.45-2.42L-30.13-2.42Q-30.71-2.42-31.09-2.80Q-31.48-3.19-31.48-3.76L-31.48-3.76Q-31.48-4.32-31.09-4.69Q-30.71-5.06-30.13-5.06ZM-27.57-8.06L-27.57-8.06Q-26.94-8.06-26.55-7.64Q-26.15-7.22-26.15-6.60L-26.15-6.60L-26.15 4.08Q-26.15 4.42-26.02 4.64Q-25.89 4.85-25.66 4.95Q-25.43 5.04-25.17 5.04L-25.17 5.04Q-24.88 5.04-24.64 4.94Q-24.40 4.83-24.09 4.83L-24.09 4.83Q-23.75 4.83-23.47 5.14Q-23.20 5.45-23.20 6.00L-23.20 6.00Q-23.20 6.68-23.93 7.11Q-24.66 7.54-25.50 7.54L-25.50 7.54Q-26.01 7.54-26.62 7.46Q-27.23 7.37-27.77 7.05Q-28.31 6.72-28.67 6.05Q-29.03 5.38-29.03 4.20L-29.03 4.20L-29.03-6.60Q-29.03-7.22-28.61-7.64Q-28.19-8.06-27.57-8.06ZM-10.93-5.30L-10.93-5.30Q-10.31-5.30-9.90-4.88Q-9.49-4.46-9.49-3.84L-9.49-3.84L-9.49 2.26Q-9.49 4.80-10.91 6.29Q-12.33 7.78-14.99 7.78L-14.99 7.78Q-17.65 7.78-19.06 6.29Q-20.46 4.80-20.46 2.26L-20.46 2.26L-20.46-3.84Q-20.46-4.46-20.05-4.88Q-19.65-5.30-19.02-5.30L-19.02-5.30Q-18.40-5.30-17.99-4.88Q-17.58-4.46-17.58-3.84L-17.58-3.84L-17.58 2.26Q-17.58 3.72-16.93 4.43Q-16.29 5.14-14.99 5.14L-14.99 5.14Q-13.67 5.14-13.02 4.43Q-12.37 3.72-12.37 2.26L-12.37 2.26L-12.37-3.84Q-12.37-4.46-11.97-4.88Q-11.56-5.30-10.93-5.30ZM-4.93 7.54L-4.93 7.54Q-5.56 7.54-5.97 7.12Q-6.37 6.70-6.37 6.08L-6.37 6.08L-6.37-3.84Q-6.37-4.46-5.97-4.88Q-5.56-5.30-4.93-5.30L-4.93-5.30Q-4.31-5.30-3.90-4.88Q-3.49-4.46-3.49-3.84L-3.49-3.84L-3.49-1.58L-3.66-3.19Q-3.40-3.76-2.98-4.21Q-2.56-4.65-2.03-4.95Q-1.50-5.25-0.90-5.40Q-0.30-5.54 0.30-5.54L0.30-5.54Q1.02-5.54 1.51-5.13Q2.00-4.72 2.00-4.17L2.00-4.17Q2.00-3.38 1.59-3.03Q1.19-2.68 0.71-2.68L0.71-2.68Q0.25-2.68-0.12-2.85Q-0.49-3.02-0.97-3.02L-0.97-3.02Q-1.41-3.02-1.85-2.82Q-2.29-2.61-2.67-2.18Q-3.04-1.75-3.27-1.11Q-3.49-0.48-3.49 0.39L-3.49 0.39L-3.49 6.08Q-3.49 6.70-3.90 7.12Q-4.31 7.54-4.93 7.54ZM9.44 7.78L9.44 7.78Q7.40 7.78 5.90 6.93Q4.40 6.08 3.60 4.61Q2.79 3.15 2.79 1.30L2.79 1.30Q2.79-0.86 3.67-2.38Q4.55-3.91 5.96-4.72Q7.38-5.54 8.96-5.54L8.96-5.54Q10.19-5.54 11.28-5.04Q12.37-4.53 13.21-3.66Q14.05-2.78 14.54-1.63Q15.03-0.48 15.03 0.82L15.03 0.82Q15.01 1.40 14.58 1.76Q14.15 2.12 13.57 2.12L13.57 2.12L4.40 2.12L3.68-0.28L12.49-0.28L11.96 0.20L11.96-0.45Q11.91-1.15 11.47-1.70Q11.03-2.25 10.37-2.58Q9.71-2.90 8.96-2.90L8.96-2.90Q8.24-2.90 7.62-2.71Q6.99-2.52 6.54-2.06Q6.08-1.60 5.82-0.84Q5.55-0.07 5.55 1.11L5.55 1.11Q5.55 2.40 6.09 3.30Q6.63 4.20 7.49 4.67Q8.34 5.14 9.30 5.14L9.30 5.14Q10.19 5.14 10.71 5.00Q11.24 4.85 11.57 4.65Q11.89 4.44 12.15 4.30L12.15 4.30Q12.59 4.08 12.97 4.08L12.97 4.08Q13.50 4.08 13.85 4.44Q14.19 4.80 14.19 5.28L14.19 5.28Q14.19 5.93 13.52 6.46L13.52 6.46Q12.90 6.99 11.77 7.38Q10.64 7.78 9.44 7.78ZM36.49 1.13L36.49 1.13Q36.49 3.10 35.61 4.60Q34.74 6.10 33.26 6.94Q31.79 7.78 29.96 7.78L29.96 7.78Q28.14 7.78 26.66 6.94Q25.19 6.10 24.31 4.60Q23.43 3.10 23.43 1.13L23.43 1.13Q23.43-0.84 24.31-2.34Q25.19-3.84 26.66-4.69Q28.14-5.54 29.96-5.54L29.96-5.54Q31.79-5.54 33.26-4.69Q34.74-3.84 35.61-2.34Q36.49-0.84 36.49 1.13ZM33.61 1.13L33.61 1.13Q33.61-0.09 33.12-0.99Q32.63-1.89 31.80-2.40Q30.97-2.90 29.96-2.90L29.96-2.90Q28.95-2.90 28.13-2.40Q27.30-1.89 26.81-0.99Q26.31-0.09 26.31 1.13L26.31 1.13Q26.31 2.33 26.81 3.23Q27.30 4.13 28.13 4.64Q28.95 5.14 29.96 5.14L29.96 5.14Q30.97 5.14 31.80 4.64Q32.63 4.13 33.12 3.23Q33.61 2.33 33.61 1.13ZM45.49-10.22L45.49-10.22Q46.02-10.22 46.52-10.08Q47.03-9.93 47.36-9.61Q47.70-9.28 47.70-8.76L47.70-8.76Q47.70-8.16 47.35-7.81Q47.00-7.46 46.55-7.46L46.55-7.46Q46.33-7.46 45.90-7.57Q45.47-7.68 45.06-7.68L45.06-7.68Q44.46-7.68 44.13-7.41Q43.81-7.15 43.69-6.80Q43.57-6.45 43.57-6.19L43.57-6.19L43.57 6.08Q43.57 6.70 43.16 7.12Q42.75 7.54 42.13 7.54L42.13 7.54Q41.51 7.54 41.10 7.12Q40.69 6.70 40.69 6.08L40.69 6.08L40.69-6.16Q40.69-7.87 41.89-9.04Q43.09-10.22 45.49-10.22ZM39.39-5.06L45.75-5.06Q46.33-5.06 46.71-4.69Q47.10-4.32 47.10-3.74L47.10-3.74Q47.10-3.16 46.71-2.79Q46.33-2.42 45.75-2.42L45.75-2.42L39.39-2.42Q38.82-2.42 38.43-2.79Q38.05-3.16 38.05-3.74L38.05-3.74Q38.05-4.32 38.43-4.69Q38.82-5.06 39.39-5.06L39.39-5.06ZM74.75-9.33L74.75-9.33Q75.30-9.33 75.80-8.91Q76.31-8.49 76.31-7.77L76.31-7.77Q76.31-7.56 76.23-7.29L76.23-7.29L71.51 6.63Q71.36 7.06 70.99 7.29Q70.62 7.52 70.21 7.54L70.21 7.54Q69.80 7.54 69.41 7.30Q69.01 7.06 68.79 6.60L68.79 6.60L65.24-1.46L65.46-1.32L61.95 6.60Q61.74 7.06 61.34 7.30Q60.95 7.54 60.54 7.54L60.54 7.54Q60.15 7.52 59.77 7.29Q59.39 7.06 59.24 6.63L59.24 6.63L54.51-7.29Q54.44-7.56 54.44-7.77L54.44-7.77Q54.44-8.49 54.96-8.91Q55.47-9.33 56.03-9.33L56.03-9.33Q56.48-9.33 56.88-9.09Q57.27-8.85 57.42-8.40L57.42-8.40L61.23 3.17L60.71 3.15L64.11-5.04Q64.31-5.47 64.67-5.72Q65.03-5.97 65.48-5.95L65.48-5.95Q65.94-5.97 66.30-5.72Q66.66-5.47 66.83-5.04L66.83-5.04L69.95 2.79L69.56 3.03L73.33-8.40Q73.47-8.85 73.88-9.09Q74.29-9.33 74.75-9.33ZM83.82 7.78L83.82 7.78Q81.78 7.78 80.28 6.93Q78.78 6.08 77.97 4.61Q77.17 3.15 77.17 1.30L77.17 1.30Q77.17-0.86 78.05-2.38Q78.92-3.91 80.34-4.72Q81.75-5.54 83.34-5.54L83.34-5.54Q84.56-5.54 85.65-5.04Q86.75-4.53 87.59-3.66Q88.43-2.78 88.92-1.63Q89.41-0.48 89.41 0.82L89.41 0.82Q89.39 1.40 88.95 1.76Q88.52 2.12 87.95 2.12L87.95 2.12L78.78 2.12L78.06-0.28L86.87-0.28L86.34 0.20L86.34-0.45Q86.29-1.15 85.85-1.70Q85.40-2.25 84.74-2.58Q84.08-2.90 83.34-2.90L83.34-2.90Q82.62-2.90 81.99-2.71Q81.37-2.52 80.91-2.06Q80.46-1.60 80.19-0.84Q79.93-0.07 79.93 1.11L79.93 1.11Q79.93 2.40 80.47 3.30Q81.01 4.20 81.86 4.67Q82.71 5.14 83.67 5.14L83.67 5.14Q84.56 5.14 85.09 5.00Q85.62 4.85 85.94 4.65Q86.27 4.44 86.53 4.30L86.53 4.30Q86.96 4.08 87.35 4.08L87.35 4.08Q87.87 4.08 88.22 4.44Q88.57 4.80 88.57 5.28L88.57 5.28Q88.57 5.93 87.90 6.46L87.90 6.46Q87.27 6.99 86.15 7.38Q85.02 7.78 83.82 7.78ZM94.93-8.76L94.93 6.08Q94.93 6.70 94.51 7.12Q94.09 7.54 93.47 7.54L93.47 7.54Q92.87 7.54 92.46 7.12Q92.05 6.70 92.05 6.08L92.05 6.08L92.05-8.76Q92.05-9.38 92.47-9.80Q92.89-10.22 93.51-10.22L93.51-10.22Q94.14-10.22 94.53-9.80Q94.93-9.38 94.93-8.76L94.93-8.76ZM101.41-8.76L101.41 6.08Q101.41 6.70 100.99 7.12Q100.57 7.54 99.95 7.54L99.95 7.54Q99.35 7.54 98.94 7.12Q98.53 6.70 98.53 6.08L98.53 6.08L98.53-8.76Q98.53-9.38 98.95-9.80Q99.37-10.22 99.99-10.22L99.99-10.22Q100.62-10.22 101.01-9.80Q101.41-9.38 101.41-8.76L101.41-8.76ZM111.63-5.54L111.63-5.54Q113.41-5.54 114.33-4.80Q115.26-4.05 115.61-2.82Q115.95-1.58 115.95-0.07L115.95-0.07L115.95 6.08Q115.95 6.70 115.55 7.12Q115.14 7.54 114.51 7.54L114.51 7.54Q113.89 7.54 113.48 7.12Q113.07 6.70 113.07 6.08L113.07 6.08L113.07-0.07Q113.07-0.86 112.87-1.50Q112.67-2.13 112.14-2.52Q111.61-2.90 110.63-2.90L110.63-2.90Q109.67-2.90 109.01-2.52Q108.35-2.13 108.00-1.50Q107.65-0.86 107.65-0.07L107.65-0.07L107.65 6.08Q107.65 6.70 107.24 7.12Q106.83 7.54 106.21 7.54L106.21 7.54Q105.59 7.54 105.18 7.12Q104.77 6.70 104.77 6.08L104.77 6.08L104.77-3.84Q104.77-4.46 105.18-4.88Q105.59-5.30 106.21-5.30L106.21-5.30Q106.83-5.30 107.24-4.88Q107.65-4.46 107.65-3.84L107.65-3.84L107.65-2.80L107.29-2.88Q107.51-3.28 107.91-3.75Q108.32-4.22 108.87-4.63Q109.43-5.04 110.12-5.29Q110.82-5.54 111.63-5.54ZM125.00 7.78L125.00 7.78Q122.96 7.78 121.46 6.93Q119.96 6.08 119.16 4.61Q118.35 3.15 118.35 1.30L118.35 1.30Q118.35-0.86 119.23-2.38Q120.11-3.91 121.52-4.72Q122.94-5.54 124.52-5.54L124.52-5.54Q125.75-5.54 126.84-5.04Q127.93-4.53 128.77-3.66Q129.61-2.78 130.10-1.63Q130.59-0.48 130.59 0.82L130.59 0.82Q130.57 1.40 130.14 1.76Q129.71 2.12 129.13 2.12L129.13 2.12L119.96 2.12L119.24-0.28L128.05-0.28L127.52 0.20L127.52-0.45Q127.47-1.15 127.03-1.70Q126.59-2.25 125.93-2.58Q125.27-2.90 124.52-2.90L124.52-2.90Q123.80-2.90 123.18-2.71Q122.55-2.52 122.10-2.06Q121.64-1.60 121.38-0.84Q121.11-0.07 121.11 1.11L121.11 1.11Q121.11 2.40 121.65 3.30Q122.19 4.20 123.05 4.67Q123.90 5.14 124.86 5.14L124.86 5.14Q125.75 5.14 126.27 5.00Q126.80 4.85 127.13 4.65Q127.45 4.44 127.71 4.30L127.71 4.30Q128.15 4.08 128.53 4.08L128.53 4.08Q129.06 4.08 129.41 4.44Q129.75 4.80 129.75 5.28L129.75 5.28Q129.75 5.93 129.08 6.46L129.08 6.46Q128.46 6.99 127.33 7.38Q126.20 7.78 125.00 7.78ZM132.25 5.55L132.25 5.55Q132.01 5.21 132.03 4.68Q132.06 4.16 132.66 3.77L132.66 3.77Q133.04 3.53 133.47 3.57Q133.91 3.60 134.31 4.01L134.31 4.01Q135.01 4.71 135.78 5.09Q136.55 5.48 137.70 5.48L137.70 5.48Q138.06 5.45 138.49 5.37Q138.92 5.28 139.25 4.98Q139.57 4.68 139.57 4.06L139.57 4.06Q139.57 3.53 139.21 3.22Q138.85 2.91 138.26 2.69Q137.67 2.48 136.95 2.28L136.95 2.28Q136.21 2.07 135.43 1.80Q134.65 1.54 134.00 1.12Q133.35 0.70 132.95 0.00Q132.54-0.69 132.54-1.75L132.54-1.75Q132.54-2.95 133.21-3.79Q133.88-4.63 134.95-5.08Q136.02-5.54 137.19-5.54L137.19-5.54Q137.94-5.54 138.75-5.36Q139.57-5.18 140.31-4.78Q141.06-4.39 141.56-3.74L141.56-3.74Q141.83-3.38 141.87-2.88Q141.92-2.37 141.42-1.96L141.42-1.96Q141.06-1.68 140.58-1.71Q140.10-1.75 139.79-2.04L139.79-2.04Q139.38-2.56 138.69-2.88Q138.01-3.19 137.12-3.19L137.12-3.19Q136.76-3.19 136.34-3.10Q135.92-3.02 135.61-2.74Q135.30-2.47 135.30-1.87L135.30-1.87Q135.30-1.32 135.66-0.99Q136.02-0.67 136.63-0.46Q137.24-0.26 137.94-0.07L137.94-0.07Q138.66 0.12 139.40 0.39Q140.15 0.65 140.77 1.08Q141.39 1.52 141.78 2.20Q142.16 2.88 142.16 3.94L142.16 3.94Q142.16 5.16 141.44 6.03Q140.72 6.89 139.64 7.34Q138.56 7.78 137.43 7.78L137.43 7.78Q136.02 7.78 134.60 7.29Q133.19 6.80 132.25 5.55ZM143.82 5.55L143.82 5.55Q143.58 5.21 143.60 4.68Q143.63 4.16 144.23 3.77L144.23 3.77Q144.61 3.53 145.04 3.57Q145.47 3.60 145.88 4.01L145.88 4.01Q146.58 4.71 147.35 5.09Q148.11 5.48 149.27 5.48L149.27 5.48Q149.63 5.45 150.06 5.37Q150.49 5.28 150.81 4.98Q151.14 4.68 151.14 4.06L151.14 4.06Q151.14 3.53 150.78 3.22Q150.42 2.91 149.83 2.69Q149.24 2.48 148.52 2.28L148.52 2.28Q147.78 2.07 147.00 1.80Q146.22 1.54 145.57 1.12Q144.92 0.70 144.51 0.00Q144.11-0.69 144.11-1.75L144.11-1.75Q144.11-2.95 144.78-3.79Q145.45-4.63 146.52-5.08Q147.59-5.54 148.76-5.54L148.76-5.54Q149.51-5.54 150.32-5.36Q151.14-5.18 151.88-4.78Q152.63-4.39 153.13-3.74L153.13-3.74Q153.39-3.38 153.44-2.88Q153.49-2.37 152.99-1.96L152.99-1.96Q152.63-1.68 152.15-1.71Q151.67-1.75 151.35-2.04L151.35-2.04Q150.95-2.56 150.26-2.88Q149.58-3.19 148.69-3.19L148.69-3.19Q148.33-3.19 147.91-3.10Q147.49-3.02 147.18-2.74Q146.87-2.47 146.87-1.87L146.87-1.87Q146.87-1.32 147.23-0.99Q147.59-0.67 148.20-0.46Q148.81-0.26 149.51-0.07L149.51-0.07Q150.23 0.12 150.97 0.39Q151.71 0.65 152.34 1.08Q152.96 1.52 153.35 2.20Q153.73 2.88 153.73 3.94L153.73 3.94Q153.73 5.16 153.01 6.03Q152.29 6.89 151.21 7.34Q150.13 7.78 149.00 7.78L149.00 7.78Q147.59 7.78 146.17 7.29Q144.75 6.80 143.82 5.55Z"/></g>
</svg>